<?xml version="1.0" encoding="UTF-8"?>
<svg id="Layer_1" data-name="Layer 1" xmlns="http://www.w3.org/2000/svg" viewBox="0 0 1000 1000">
  <defs>
    <style>
      .cls-1, .cls-2 {
        fill: #9cce00;
      }

      .cls-1, .cls-3 {
        fill-rule: evenodd;
      }
    </style>
  </defs>
  <g>
    <path class="cls-2" d="M640.9,614.4l-29.33,42.7h-215.85l-29.33-42.7h-42.2l50.43,73.4h258.04l50.43-73.4h-42.19Zm-8.24-302.2H374.62l-50.43,73.4h42.2l29.33-42.7h215.85l29.33,42.7h42.19l-50.43-73.4Z"/>
    <polygon class="cls-1" points="500.01 458.48 493.79 469.25 488.71 478.04 488.64 478.17 488.02 479.24 487.98 479.32 476.04 500 472.5 506.13 465.67 517.97 464.06 520.76 452.07 541.51 447.12 550.07 440.08 562.27 428.08 583.05 416.09 603.8 368.15 603.8 380.14 583.05 392.14 562.27 404.11 541.53 405.6 538.95 416.11 520.76 428.09 500 440.08 479.24 447.12 467.04 452.07 458.48 500.01 458.48"/>
    <polygon class="cls-1" points="631.85 396.19 619.86 416.95 607.86 437.72 595.9 458.46 594.4 461.05 583.89 479.23 571.91 499.99 559.92 520.75 552.88 532.96 547.94 541.51 499.99 541.51 506.21 530.74 511.29 521.95 511.36 521.83 511.98 520.75 512.02 520.68 523.96 499.99 527.5 493.86 534.33 482.03 535.95 479.23 547.94 458.48 552.88 449.93 559.92 437.72 571.92 416.95 583.91 396.19 631.85 396.19"/>
    <polygon class="cls-3" points="919.51 396.2 907.53 416.96 895.55 437.73 885.05 455.89 883.98 457.74 883.56 458.47 872.26 478.04 871.57 479.24 871.53 479.3 859.58 500 856.05 506.12 847.6 520.76 843.53 527.8 835.61 541.52 823.62 562.28 811.64 583.05 823.62 603.81 464.04 603.81 469.84 593.77 476.03 583.04 488.01 562.28 583.91 562.28 594.4 544.11 595.9 541.53 595.9 541.52 619.87 500 631.85 479.24 635.92 472.2 643.84 458.48 655.82 437.73 663.7 424.08 667.81 416.96 667.87 416.87 667.87 416.87 677.45 400.26 679.8 396.2 727.74 396.2 725.66 399.79 718.96 411.39 715.75 416.97 712.93 421.86 709.35 428.06 703.77 437.73 691.84 458.4 679.8 479.24 677.45 483.31 667.81 500 655.82 520.76 643.84 541.52 635.92 555.25 631.85 562.28 775.69 562.28 787.68 541.52 799.66 520.76 703.87 520.76 715.85 500 715.8 499.91 718.96 494.44 727.74 479.24 823.62 479.24 835.61 458.48 843.53 444.75 847.6 437.73 751.71 437.73 760.48 422.53 763.7 416.97 775.69 396.2 919.51 396.2"/>
  </g>
  <polygon class="cls-3" points="535.96 396.2 530.16 406.23 523.97 416.97 511.99 437.73 416.09 437.73 405.6 455.89 404.1 458.47 404.1 458.49 380.13 500.01 368.15 520.77 364.08 527.8 356.16 541.53 344.18 562.28 336.31 575.91 332.19 583.05 332.14 583.13 322.55 599.75 320.2 603.81 272.26 603.81 274.34 600.22 281.04 588.62 284.25 583.04 287.07 578.14 290.65 571.94 296.23 562.28 308.17 541.61 320.2 520.77 322.55 516.7 332.19 500.01 344.18 479.25 356.16 458.49 364.08 444.75 368.15 437.73 224.31 437.73 212.32 458.49 200.34 479.25 296.13 479.25 284.15 500 284.2 500.1 281.04 505.56 272.26 520.77 176.38 520.77 164.39 541.53 156.47 555.25 152.41 562.28 248.29 562.28 239.52 577.48 236.3 583.04 224.31 603.81 80.49 603.81 92.47 583.05 104.45 562.28 114.95 544.12 116.02 542.27 116.44 541.54 127.74 521.97 128.43 520.77 128.47 520.71 140.42 500.01 143.95 493.88 152.41 479.25 156.47 472.21 164.39 458.49 176.38 437.73 188.36 416.96 176.38 396.2 535.96 396.2"/>
</svg>