<?xml version="1.0" encoding="UTF-8"?>
<svg id="Layer_1" data-name="Layer 1" xmlns="http://www.w3.org/2000/svg" viewBox="0 0 1000 1000">
  <defs>
    <style>
      .cls-1, .cls-2 {
        fill-rule: evenodd;
      }

      .cls-1, .cls-3 {
        fill: #9cce00;
      }

      .cls-2 {
        fill: #fff;
      }
    </style>
  </defs>
  <path class="cls-3" d="M642.39,614.4l-29.33,42.7h-215.85l-29.33-42.7h-42.2l50.43,73.4h258.04l50.43-73.4h-42.19Zm-8.24-302.2H376.11l-50.43,73.4h42.2l29.33-42.7h215.85l29.33,42.7h42.19l-50.43-73.4Zm-315.74,83.99h0s42.2,0,42.2,0h0s-42.2,0-42.2,0Z"/>
  <polygon class="cls-1" points="501.5 458.48 495.28 469.25 490.21 478.04 490.13 478.17 489.51 479.24 489.48 479.32 477.53 500 473.99 506.13 467.16 517.97 465.55 520.76 453.56 541.51 448.61 550.07 441.58 562.27 429.57 583.05 417.58 603.8 369.64 603.8 381.63 583.05 393.63 562.27 405.6 541.53 407.1 538.95 417.6 520.76 429.59 500 441.58 479.24 448.61 467.04 453.56 458.48 501.5 458.48"/>
  <polygon class="cls-2" points="537.45 396.2 531.66 406.23 525.46 416.97 513.48 437.73 417.58 437.73 407.09 455.89 405.6 458.47 405.6 458.49 381.62 500.01 369.64 520.77 365.57 527.8 357.65 541.53 345.67 562.28 337.8 575.91 333.68 583.05 333.63 583.13 324.04 599.75 321.69 603.81 273.75 603.81 275.83 600.22 282.53 588.62 285.74 583.04 288.56 578.14 292.15 571.94 297.72 562.28 309.66 541.61 321.69 520.77 324.04 516.7 333.68 500.01 345.67 479.25 357.65 458.49 365.57 444.75 369.64 437.73 225.81 437.73 213.82 458.49 201.83 479.25 297.62 479.25 285.64 500 285.69 500.1 282.53 505.56 273.75 520.77 177.87 520.77 165.88 541.53 157.96 555.25 153.9 562.28 249.78 562.28 241.01 577.48 237.8 583.04 225.81 603.81 81.98 603.81 93.96 583.05 105.95 562.28 116.45 544.12 117.52 542.27 117.94 541.54 129.23 521.97 129.93 520.77 129.96 520.71 141.91 500.01 145.44 493.88 153.9 479.25 157.96 472.21 165.88 458.49 177.87 437.73 189.85 416.96 177.87 396.2 537.45 396.2"/>
  <polygon class="cls-2" points="297.73 479.25 285.74 500.01 285.69 500.1 285.64 500 297.62 479.25 297.73 479.25"/>
  <polygon class="cls-1" points="633.34 396.19 621.35 416.95 609.36 437.72 597.39 458.46 595.89 461.05 585.38 479.23 573.4 499.99 561.41 520.75 554.37 532.96 549.43 541.51 501.49 541.51 507.7 530.74 512.78 521.95 512.86 521.83 513.48 520.75 513.51 520.68 525.46 499.99 528.99 493.86 535.83 482.03 537.44 479.23 549.43 458.48 554.37 449.93 561.41 437.72 573.42 416.95 585.41 396.19 633.34 396.19"/>
  <polygon class="cls-2" points="921 396.2 909.02 416.96 897.04 437.73 886.54 455.89 885.47 457.74 885.05 458.47 873.75 478.04 873.06 479.24 873.02 479.3 861.08 500 857.54 506.12 849.09 520.76 845.03 527.8 837.11 541.52 825.12 562.28 813.13 583.05 825.12 603.81 465.53 603.81 471.33 593.77 477.52 583.04 489.5 562.28 585.41 562.28 595.89 544.11 597.39 541.53 597.39 541.52 621.36 500 633.34 479.24 637.41 472.2 645.33 458.48 657.32 437.73 665.19 424.08 669.31 416.96 669.36 416.87 669.36 416.87 678.95 400.26 681.3 396.2 729.23 396.2 727.16 399.79 720.46 411.39 717.24 416.97 714.42 421.86 710.84 428.06 705.26 437.73 693.33 458.4 681.3 479.24 678.95 483.31 669.31 500 657.32 520.76 645.33 541.52 637.41 555.25 633.34 562.28 777.18 562.28 789.17 541.52 801.15 520.76 705.36 520.76 717.35 500 717.3 499.91 720.46 494.44 729.23 479.24 825.12 479.24 837.11 458.48 845.03 444.75 849.09 437.73 753.21 437.73 761.97 422.53 765.19 416.97 777.18 396.2 921 396.2"/>
  <polygon class="cls-2" points="717.35 500 705.37 520.76 705.26 520.76 717.25 500 717.3 499.91 717.35 500"/>
</svg>