<svg xmlns="http://www.w3.org/2000/svg" viewBox="0 0 120 120">
  <rect width="120" height="120" fill="none"/>
  <!-- Outer ring -->
  <circle cx="60" cy="60" r="56" fill="#D00027"/>
  <circle cx="60" cy="60" r="56" fill="none" stroke="#fff" stroke-width="5"/>
  <!-- Vertical divider -->
  <line x1="60" y1="4" x2="60" y2="116" stroke="#fff" stroke-width="4"/>
  <!-- Left half: red cross on white -->
  <rect x="4" y="32" width="56" height="56" fill="#fff" opacity="0.12"/>
  <rect x="22" y="36" width="10" height="48" rx="2" fill="#fff"/>
  <rect x="14" y="54" width="42" height="10" rx="2" fill="#fff"/>
  <!-- Right half: serpent (Biscione) -->
  <path d="M64 38 C72 42 80 50 80 60 C80 72 72 78 64 82"
    fill="none" stroke="#fff" stroke-width="6" stroke-linecap="round"/>
  <path d="M64 38 C78 30 88 38 86 52 C84 62 74 66 64 62"
    fill="none" stroke="#fff" stroke-width="5" stroke-linecap="round"/>
  <!-- Crown at top right -->
  <path d="M64 24 L70 18 L74 24 L80 16 L86 24 L90 18 L96 24"
    fill="none" stroke="#fff" stroke-width="3" stroke-linejoin="round"/>
</svg>