<svg xmlns="http://www.w3.org/2000/svg" viewBox="0 0 120 160">
  <rect width="120" height="160" fill="none"/>
  <!-- Shield shape -->
  <path d="M10 10 L110 10 L110 130 Q60 158 10 130 Z"
    fill="#FFCC00" stroke="#000" stroke-width="3"/>
  <!-- Italian stripe green -->
  <path d="M10 10 L38 10 L38 118 Q24 124 10 118 Z" fill="#009246"/>
  <!-- Italian stripe red -->
  <path d="M82 10 L110 10 L110 118 Q96 124 82 118 Z" fill="#CE2B37"/>
  <!-- Prancing horse body -->
  <path d="M60 118 C60 118 44 106 44 88 C44 72 52 62 60 60 C68 62 76 72 76 88 C76 106 60 118 60 118Z"
    fill="#000"/>
  <!-- Horse head/neck -->
  <path d="M55 68 C55 68 52 58 56 50 C58 46 62 44 66 46 C70 48 72 54 70 62"
    fill="none" stroke="#000" stroke-width="6" stroke-linecap="round"/>
  <!-- Tail -->
  <path d="M56 70 L48 55 L55 50" fill="none" stroke="#000" stroke-width="4" stroke-linecap="round"/>
  <!-- Legs -->
  <path d="M48 98 L44 112 M58 102 L56 118 M62 102 L64 118 M72 98 L76 112"
    stroke="#000" stroke-width="5" stroke-linecap="round" fill="none"/>
</svg>