<svg xmlns="http://www.w3.org/2000/svg" viewBox="0 0 200 220">
  <rect width="200" height="220" fill="none"/>
  <!-- Outer shield -->
  <path d="M100 8 L190 50 L190 170 L100 212 L10 170 L10 50 Z"
    fill="#fff" stroke="#000" stroke-width="4"/>
  <!-- Vertical divider -->
  <line x1="100" y1="8" x2="100" y2="212" stroke="#000" stroke-width="4"/>
  <!-- Horizontal divider -->
  <line x1="10" y1="110" x2="190" y2="110" stroke="#000" stroke-width="4"/>
  <!-- Top-left antlers (red/black Württemberg) -->
  <rect x="14" y="14" width="42" height="92" fill="#C00"/>
  <rect x="20" y="20" width="12" height="80" fill="#fff"/>
  <rect x="38" y="20" width="12" height="80" fill="#fff"/>
  <!-- Top-right (gold) -->
  <rect x="104" y="14" width="82" height="92" fill="#D4AF37"/>
  <!-- Deer antler lines in gold section -->
  <line x1="145" y1="20" x2="145" y2="102" stroke="#000" stroke-width="3"/>
  <!-- Centre crest (horse) -->
  <circle cx="100" cy="110" r="36" fill="#fff" stroke="#000" stroke-width="3"/>
  <path d="M100 90 C100 90 86 100 86 114 C86 124 92 130 100 130 C108 130 114 124 114 114 C114 100 100 90 100 90Z"
    fill="#C00"/>
  <path d="M96 98 L92 90 L98 86" fill="none" stroke="#C00" stroke-width="4" stroke-linecap="round"/>
  <!-- Bottom halves (stripe pattern) -->
  <rect x="14" y="114" width="42" height="92" fill="#D4AF37"/>
  <rect x="104" y="114" width="82" height="92" fill="#fff"/>
  <line x1="120" y1="120" x2="170" y2="120" stroke="#000" stroke-width="3"/>
  <line x1="120" y1="134" x2="170" y2="134" stroke="#000" stroke-width="3"/>
  <line x1="120" y1="148" x2="170" y2="148" stroke="#000" stroke-width="3"/>
  <line x1="120" y1="162" x2="170" y2="162" stroke="#000" stroke-width="3"/>
  <line x1="120" y1="176" x2="170" y2="176" stroke="#000" stroke-width="3"/>
  <line x1="120" y1="190" x2="170" y2="190" stroke="#000" stroke-width="3"/>
  <text x="100" y="210" text-anchor="middle" font-size="11" font-weight="700"
    fill="#000" font-family="Arial,sans-serif" letter-spacing="2.5">PORSCHE</text>
</svg>